<?xml version="1.0" encoding="UTF-8"?>
<svg width="1200pt" height="1200pt" version="1.1" viewBox="0 0 1200 1200" xmlns="http://www.w3.org/2000/svg">
 <path d="m980.25 996.48c-9.8555-5.6953-21.086-8.5781-32.465-8.3242h-696.89c-16.57 0-32.469 6.5703-44.203 18.273s-18.352 27.582-18.395 44.156v48.777c0 6.8008 2.7031 13.32 7.5117 18.129 4.8047 4.8047 11.324 7.5078 18.125 7.5117h772.14c6.8008-0.003906 13.32-2.707 18.125-7.5117 4.8086-4.8086 7.5117-11.328 7.5117-18.125v-48.781c0.011719-10.996-2.8945-21.797-8.4219-31.301-5.5273-9.5078-13.477-17.375-23.039-22.805z"/>
 <path d="m947.61 954.86c-0.94141-20.848-9.8711-40.531-24.934-54.977-15.062-14.441-35.105-22.535-55.977-22.605h-533.41c-20.871 0.070312-40.914 8.1641-55.977 22.605-15.062 14.445-23.992 34.129-24.934 54.977z"/>
 <path d="m356.11 843.98h510.6-0.003906c5.8047-0.003907 11.598 0.49609 17.316 1.4961-57.879-93.781-73.141-207.2-75.254-314.48v0.003906c-0.015625-31.23-9.1836-61.766-26.375-87.836-17.191-26.07-41.652-46.527-70.348-58.836-39.441-18.875-92.57-11.684-135.52-12.984v-0.003906c-30.129-2.4766-60.422 1.9648-88.57 12.988-28.695 12.312-53.156 32.766-70.348 58.836-17.191 26.07-26.363 56.605-26.375 87.832 0.22656 36.945-2.4453 73.852-7.9922 110.38-9.6562 62.93-28.969 148.34-67.258 204.11h-0.003906c13.324-1.457 26.73-1.957 40.125-1.4961zm80.578-141.01c-10.156-12.117 1.5625-23.59 9.4922-32.629l41.953-50.777-0.003906-0.003906c3.2578-3.6562 7.9219-5.7461 12.82-5.7461 4.8945 0 9.5586 2.0898 12.816 5.7461l51.441 62.098c2.4258 3.0195 3.75 6.7812 3.75 10.652 0 3.875-1.3242 7.6367-3.75 10.656l-51.441 62.098c-3.1719 3.7969-7.8672 5.9922-12.816 5.9922-4.9531 0-9.6445-2.1953-12.82-5.9922l-48.945-59.102zm99.055-189.62 51.441-62.266v-0.003907c3.2578-3.6523 7.9219-5.7422 12.82-5.7422 4.8945 0 9.5586 2.0898 12.82 5.7422l51.441 62.266c2.5 2.9531 3.8711 6.6992 3.8711 10.57 0 3.8711-1.3711 7.6172-3.8711 10.57l-51.441 62.098c-3.1445 3.8477-7.8516 6.0781-12.82 6.0781s-9.6758-2.2305-12.82-6.0781l-51.441-62.098v0.003907c-2.5-2.957-3.8711-6.7031-3.8711-10.574 0-3.8711 1.3711-7.6172 3.8711-10.57zm176.14 251.72v-0.003906c-3.1914 3.7695-7.8789 5.9453-12.82 5.9453-4.9375 0-9.625-2.1758-12.816-5.9453l-51.441-62.098c-2.4258-3.0195-3.75-6.7812-3.75-10.656 0-3.8711 1.3242-7.6328 3.75-10.652l51.441-62.098c3.2578-3.6562 7.9219-5.7461 12.816-5.7461 4.8984 0 9.5625 2.0898 12.82 5.7461l41.953 50.777c7.8984 9.0391 19.668 20.5 9.4883 32.633l-2.4961 2.9961z"/>
 <path d="m550.72 338.04h98.559c1.6641 0 3.4961 0 5.1602 0.16406 11.195 0.17578 22.348 1.4609 33.293 3.832v-33.797c-0.03125-9.6875-3.9102-18.969-10.773-25.801-6.8672-6.8359-16.164-10.668-25.852-10.66h-102.22c-9.6875-0.007812-18.984 3.8242-25.852 10.66-6.8633 6.832-10.738 16.113-10.773 25.801v33.797c12.645-2.6602 25.531-4 38.457-3.9961z"/>
 <path d="m653.77 238.65-11.32-124.86v-0.003907c-1.2891-14.258-9.6484-26.918-22.258-33.703-12.609-6.7812-27.781-6.7812-40.391 0-12.609 6.7852-20.969 19.445-22.258 33.703l-11.32 124.86c0.30859-0.53516 88.957-0.40234 107.55 0.003906z"/>
 <path d="m629.79 523.84-29.793-35.961-29.793 35.961 29.793 36.133z"/>
 <path d="m530.74 692.3-29.793-35.941-29.797 35.941 29.797 35.965z"/>
 <path d="m669.26 692.3 29.793 35.965 29.797-35.965-29.797-35.941z"/>
</svg>
