<?xml version="1.0" encoding="utf-8"?>
<!-- Generator: Adobe Illustrator 19.1.0, SVG Export Plug-In . SVG Version: 6.00 Build 0)  -->
<svg version="1.1" id="Layer_1" xmlns="http://www.w3.org/2000/svg" xmlns:xlink="http://www.w3.org/1999/xlink" x="0px" y="0px"
	 viewBox="0 0 150 150" enable-background="new 0 0 150 150" xml:space="preserve">
<g id="search">
	<circle id="Background_35_" fill="#3063AF" cx="75" cy="75" r="75"/>
	<g id="Shadow_35_">
		<defs>
			<circle id="SVGID_55_" cx="75" cy="75" r="75"/>
		</defs>
		<clipPath id="SVGID_2_">
			<use xlink:href="#SVGID_55_"  overflow="visible"/>
		</clipPath>
		<polygon clip-path="url(#SVGID_2_)" fill="#1B54A5" points="85.5,45.1 150,109.8 150,150 108,150 44.5,86.1 		"/>
	</g>
	<g id="Object_35_">
		<path fill="#BBBBBB" d="M112.9,106L91.8,84.5c-1.3-1.4-3.5-1.4-4.9,0l-3.2,3.3c-1.3,1.4-1.3,3.6,0,5l21.1,21.5
			c1.3,1.4,3.5,1.4,4.9,0l3.2-3.3C114.3,109.6,114.3,107.4,112.9,106z"/>
		<circle fill="#5382C2" cx="64.7" cy="65.5" r="27"/>
		<path fill="#FFFFFF" d="M94.3,87.1l-5.6-5.7C96,70,94.8,54.5,85,44.6c-11.2-11.4-29.4-11.4-40.6,0s-11.2,29.9,0,41.3
			c9.8,10,25,11.2,36.1,3.7l5.6,5.7L94.3,87.1z M47.9,82.4c-9.3-9.5-9.3-24.8,0-34.3s24.4-9.5,33.7,0s9.3,24.8,0,34.3
			C72.2,91.8,57.2,91.8,47.9,82.4z"/>
	</g>
</g>
</svg>
